<svg width="60" height="60" viewBox="0 0 60 60" fill="none" xmlns="http://www.w3.org/2000/svg">
<g clip-path="url(#clip0_103_70)">
<path d="M59.5639 50.8731L52.8447 57.5923C52.4636 57.9734 51.9466 58.1875 51.4076 58.1875C50.8686 58.1875 50.3516 57.9734 49.9705 57.5923L43.2513 50.8731C42.9721 50.5939 42.8152 50.2153 42.8152 49.8204C42.8152 49.4256 42.9721 49.0469 43.2512 48.7677C43.5304 48.4886 43.9091 48.3317 44.3039 48.3317C44.6987 48.3317 45.0774 48.4885 45.3566 48.7677L49.9443 53.3302C49.7538 34.2663 40.6572 27.8302 35.2109 25.689C34.8186 25.5348 34.4217 25.3939 34.0202 25.2664C34.4414 26.8144 34.7551 28.3896 34.9591 29.9808C35.6271 35.2614 34.8654 39.6348 32.8127 42.2953C29.6926 46.3398 25.5433 48.1642 21.1315 47.4332C18.8781 47.0442 16.7746 46.0449 15.0494 44.544C13.3063 43.0612 11.9918 41.1389 11.2423 38.9766C9.80094 34.7493 10.8948 30.2599 14.2441 26.6594C17.455 23.2072 22.5494 21.3432 27.8993 21.3434C28.4435 21.3434 28.9896 21.3629 29.5375 21.402C28.7986 19.6735 27.9199 18.0081 26.9102 16.4224C23.4375 10.9836 15.5594 2.32547 1.81438 5.44019C1.43208 5.52188 1.03298 5.44962 0.703604 5.23906C0.374225 5.02849 0.1411 4.6966 0.0547609 4.31532C-0.0315778 3.93405 0.0358267 3.5341 0.242364 3.20218C0.448902 2.87027 0.777929 2.63312 1.15813 2.54214C3.21884 2.06575 5.32632 1.82103 7.44137 1.81254C11.1647 1.79619 14.8396 2.65662 18.1687 4.32421C22.5327 6.50484 26.4214 10.1351 29.4147 14.8226C30.832 17.0513 32.012 19.4223 32.9354 21.8968C34.0814 22.1513 35.2059 22.4945 36.2987 22.9235C41.1172 24.8182 45.1595 28.3233 47.988 33.0602C51.1787 38.4032 52.8354 45.2139 52.9169 53.3102L57.4591 48.7679C57.5973 48.6297 57.7615 48.52 57.9421 48.4452C58.1227 48.3704 58.3163 48.3319 58.5118 48.3319C58.7073 48.3319 58.9009 48.3704 59.0815 48.4453C59.2621 48.5201 59.4262 48.6297 59.5644 48.768C59.7027 48.9062 59.8123 49.0703 59.8871 49.251C59.9619 49.4316 60.0004 49.6252 60.0004 49.8207C60.0004 50.0162 59.9619 50.2097 59.8871 50.3904C59.8123 50.571 59.7026 50.7351 59.5644 50.8733L59.5639 50.8731ZM32.0111 30.3535C31.7547 28.3733 31.3168 26.4208 30.7031 24.5207C25.2032 23.7676 19.5727 25.2933 16.4193 28.6833C13.8014 31.4977 12.9615 34.8122 14.0544 38.0175C15.1854 41.3339 18.2245 43.9396 21.6168 44.5017C22.0666 44.5766 22.5217 44.6145 22.9776 44.6148C25.7593 44.6148 28.3764 43.1807 30.4596 40.4803C32.0064 38.4756 32.5718 34.7845 32.0111 30.3538V30.3535Z" fill="#A4A4A4"/>
</g>
<defs>
<clipPath id="clip0_103_70">
<rect width="60" height="60" fill="white" transform="matrix(1 0 0 -1 0 60)"/>
</clipPath>
</defs>
</svg>
